<svg xmlns="http://www.w3.org/2000/svg" xmlns:xlink="http://www.w3.org/1999/xlink" version="1.1" id="Layer_1" x="0px" y="0px" style="enable-background:new 0 0 40.4 40.4;" xml:space="preserve" viewBox="4.3 7 31.8 28.4">
<style type="text/css">
	.st0{fill:none;stroke:#636366;stroke-miterlimit:10;}
</style>
<g>
	<path class="st0" d="M20.2,34c-0.4-0.3-0.8-0.5-1.1-0.8c-0.6-0.4-1.2-0.8-1.8-1.3c-3.9-2.5-11.8-7.7-11.8-15.5   c0-4.5,3.7-8.2,8.2-8.2c2.8,0,4.5,1.7,6,3.5l0.5,0.7l0.5-0.7c1.5-1.8,3.2-3.5,6-3.5c4.5,0,8.2,3.7,8.2,8.2c0,7.8-7.9,13-11.7,15.5   l-0.8,0.5C21.5,32.9,20.8,33.4,20.2,34z"/>
	<g>
		<path class="st0" d="M26.7,8.9c4.1,0,7.5,3.4,7.5,7.5c0,6.6-5.5,11-11.4,14.9c-0.3,0.2-0.5,0.3-0.8,0.5c-0.7,0.5-1.4,0.9-1.9,1.3    c-0.2-0.2-0.5-0.3-0.7-0.5c-0.6-0.4-1.2-0.8-1.8-1.3h-0.1h-0.1C11.5,27.4,6,23,6,16.4c0-4.1,3.4-7.5,7.5-7.5    c2.4,0,3.9,1.3,5.5,3.3l1.1,1.3l1.1-1.3C22.8,10.2,24.4,8.9,26.7,8.9 M26.7,7.5c-3,0-4.8,1.7-6.5,3.8c-1.7-2.1-3.6-3.8-6.5-3.8    c-4.8,0-8.9,4-8.9,8.9c0,7.8,7.2,12.9,12,16c1.1,0.8,2.1,1.5,3,2.1l0.4,0.4l0.4-0.4c0.6-0.6,1.7-1.3,3-2.1c4.8-3.2,12-8.2,12-16    C35.6,11.5,31.6,7.5,26.7,7.5L26.7,7.5z"/>
	</g>
</g>
</svg>