<?xml version="1.0" standalone="no"?><!DOCTYPE svg PUBLIC "-//W3C//DTD SVG 1.1//EN" "http://www.w3.org/Graphics/SVG/1.1/DTD/svg11.dtd"><svg t="1666165616944" class="icon" viewBox="0 0 1026 1024" version="1.1" xmlns="http://www.w3.org/2000/svg" p-id="3270" xmlns:xlink="http://www.w3.org/1999/xlink" width="200.390625" height="200"><path d="M820.224 508.928q-15.36-2.048-29.696-2.048t-29.696 1.024l-699.392-1.024 0-428.032q0-31.744 23.04-54.784t55.808-23.04l735.232 0q32.768 0 55.808 23.04t23.04 54.784l0 430.08-134.144 0zM1013.76 612.352q-9.216-11.264-20.48-20.48-4.096-5.12-8.192-8.704t-9.216-7.68l4.096 0q16.384 0 26.112 9.216t9.728 19.456q0 2.048-2.048 8.192zM793.6 569.344q46.08 0 87.04 17.408t71.68 48.128 48.128 71.68 17.408 87.04-17.408 87.04-48.128 71.68-71.68 48.128-87.04 17.408-87.04-17.408-71.168-48.128-48.128-71.68-17.92-87.04 17.92-87.04 48.128-71.68 71.168-48.128 87.04-17.408zM921.6 826.368q13.312 0 22.528-9.216t9.216-22.528q0-12.288-9.216-22.016t-22.528-9.728l-96.256 0 0-95.232q0-13.312-8.704-23.04t-23.04-9.728q-12.288 0-22.016 9.728t-9.728 23.04l0 95.232-95.232 0q-13.312 0-23.04 9.728t-9.728 22.016q0 13.312 9.728 22.528t23.04 9.216l95.232 0 0 95.232q0 14.336 9.728 23.552t22.016 9.216q14.336 0 23.04-9.216t8.704-23.552l0-95.232 96.256 0zM517.12 701.44q-23.552 70.656-11.264 143.872t61.44 132.608q-6.144 18.432-22.528 30.72t-36.864 12.288q-26.624 0-45.056-18.432t-18.432-45.056l0-256 72.704 0zM586.752 591.872q-19.456 19.456-37.888 43.008l-520.192 0q-16.384 0-23.552-8.704t-7.168-19.968q0-10.24 7.168-20.48t23.552-10.24l574.464 0q-4.096 4.096-8.192 7.68t-8.192 8.704z" p-id="3271" fill="#8a8a8a"></path></svg>