<?xml version="1.0" standalone="no"?><!DOCTYPE svg PUBLIC "-//W3C//DTD SVG 1.1//EN" "http://www.w3.org/Graphics/SVG/1.1/DTD/svg11.dtd"><svg t="1666165667886" class="icon" viewBox="0 0 1024 1024" version="1.1" xmlns="http://www.w3.org/2000/svg" p-id="5346" xmlns:xlink="http://www.w3.org/1999/xlink" width="200" height="200"><path d="M184 818.1h657c19.2 0 37.1-6.9 50.5-19.4 13.6-12.6 21.1-29.6 21.1-47.8V626.7c0-36.4-32.8-67.2-71.6-67.2H656.4l-19.2-112.3c64.1-36.4 103.7-103.2 103.7-175.5 0-27.6-6-54.6-17.8-80.1-11.4-24.6-27.6-46.8-48.2-65.9-42.6-39.4-98.6-61.1-157.9-61.1-60.2 0-116.8 21.5-159.4 60.4-42.7 39.1-66.3 91.2-66.3 146.7 0 72.3 39.6 139 103.7 175.5l-19.2 112.3H184c-19.2 0-37.1 6.9-50.5 19.4-13.6 12.6-21.1 29.6-21.1 47.8v124.2c0 36.4 32.8 67.2 71.6 67.2z m7.9-180.1h192.2c35 0 65.5-26.7 69.7-60.8l24.7-123.9 0.1-0.4c4-27.7-9.8-53.5-35.9-67.4-42.9-22.8-68.5-64.7-68.5-112.1 0-72.9 64-132.1 142.7-132.1 78.7 0 142.7 58.5 142.7 130.4 0 47.4-25.6 89.3-68.5 112.1-25.5 13.6-40 41.3-35.9 69.1v0.2L580 577.2c4.2 34.1 34.8 60.8 69.8 60.8h183.4v103.4H191.9V638zM887.7 875.9H137.3c-22.1 0-40.2 18.1-40.2 40.2s18.1 40.2 40.2 40.2h750.4c22.1 0 40.2-18.1 40.2-40.2s-18-40.2-40.2-40.2z" p-id="5347" fill="#8a8a8a"></path></svg>