<?xml version="1.0" standalone="no"?><!DOCTYPE svg PUBLIC "-//W3C//DTD SVG 1.1//EN" "http://www.w3.org/Graphics/SVG/1.1/DTD/svg11.dtd"><svg t="1666148577787" class="icon" viewBox="0 0 1024 1024" version="1.1" xmlns="http://www.w3.org/2000/svg" p-id="9476" xmlns:xlink="http://www.w3.org/1999/xlink" width="200" height="200"><path d="M496 740.266667a32 32 0 0 1 32 0l85.333333 49.322666a32 32 0 0 1 11.733334 43.648 130.986667 130.986667 0 0 1-112.896 65.749334h-0.341334A130.986667 130.986667 0 0 1 398.933333 833.28a32 32 0 0 1 11.733334-43.648l85.333333-49.28zM512 804.992l-34.688 20.053333 1.493333 0.853334c10.069333 5.930667 21.546667 9.045333 33.194667 9.130666a66.986667 66.986667 0 0 0 34.688-9.984l-34.688-20.053333z" fill="#8a8a8a" p-id="9477"></path><path d="M249.301333 283.648a525.013333 525.013333 0 0 1 717.056 192.085333 32 32 0 0 1-11.690666 43.733334L527.786667 765.952a32 32 0 0 1-32 0l-426.453334-246.528a32 32 0 0 1-11.776-43.605333 520.96 520.96 0 0 1 191.744-192.170667z m381.738667 9.386667a461.013333 461.013333 0 0 0-349.738667 46.08 456.96 456.96 0 0 0-151.381333 141.44l381.866667 220.714666 382.208-220.672a461.013333 461.013333 0 0 0-262.954667-187.562666z" fill="#8a8a8a" p-id="9478"></path><path d="M407.466667 539.989333a208.981333 208.981333 0 0 1 285.44 76.458667 32 32 0 0 1-55.466667 32 145.024 145.024 0 0 0-197.973333-53.034667 143.573333 143.573333 0 0 0-52.906667 52.949334 32 32 0 0 1-55.466667-31.829334 207.573333 207.573333 0 0 1 76.373334-76.544z" fill="#8a8a8a" p-id="9479"></path></svg>