<?xml version="1.0" standalone="no"?><!DOCTYPE svg PUBLIC "-//W3C//DTD SVG 1.1//EN" "http://www.w3.org/Graphics/SVG/1.1/DTD/svg11.dtd"><svg t="1666148722542" class="icon" viewBox="0 0 1024 1024" version="1.1" xmlns="http://www.w3.org/2000/svg" p-id="14849" xmlns:xlink="http://www.w3.org/1999/xlink" width="200" height="200"><path d="M384 810.666667h311.466667c-8.533333-12.8-12.8-25.6-12.8-42.666667V256H256v512c0 25.6 17.066667 42.666667 42.666667 42.666667h85.333333z m-170.666667-42.666667V213.333333h512v128h128v426.666667c0 46.933333-38.4 85.333333-85.333333 85.333333H298.666667c-46.933333 0-85.333333-38.4-85.333334-85.333333z m512-384v384c0 25.6 17.066667 42.666667 42.666667 42.666667s42.666667-17.066667 42.666667-42.666667V384h-85.333334zM341.333333 384h256v42.666667H341.333333V384z m0 128h256v42.666667H341.333333v-42.666667z m0 128h170.666667v42.666667H341.333333v-42.666667z" fill="#8a8a8a" p-id="14850"></path></svg>