<?xml version="1.0" standalone="no"?><!DOCTYPE svg PUBLIC "-//W3C//DTD SVG 1.1//EN" "http://www.w3.org/Graphics/SVG/1.1/DTD/svg11.dtd"><svg t="1666148754618" class="icon" viewBox="0 0 1024 1024" version="1.1" xmlns="http://www.w3.org/2000/svg" p-id="15100" xmlns:xlink="http://www.w3.org/1999/xlink" width="200" height="200"><path d="M741.3 161.6h-42.4c-10.5 0-19.1 8.6-19.1 19.1s8.6 19.1 19.1 19.1h42.4c42 0 76.2 34.2 76.2 76.3v477.4c0 42.1-34.3 76.3-76.4 76.3H282.9c-42.1 0-76.3-34.2-76.3-76.3V276.1c0-42.1 34.2-76.3 76.3-76.3h44.9c10.5 0 19.1-8.6 19.1-19.1s-8.6-19.1-19.1-19.1h-44.9c-63.1 0-114.5 51.4-114.5 114.5v477.4c0 63.1 51.4 114.5 114.5 114.5h458.3c63.1 0 114.5-51.4 114.5-114.5V276.1c-0.1-63.1-51.4-114.5-114.4-114.5z" p-id="15101" fill="#8a8a8a"></path><path d="M439.3 213.3h144.6c19 0 34.4-12.8 34.4-28.6s-15.4-28.6-34.4-28.6H439.3c-19 0-34.4 12.8-34.4 28.6-0.1 15.7 15.3 28.6 34.4 28.6zM688.3 394.8H333.5c-3.1 0-5.7-2.5-5.7-5.7v-30.9c0-3.1 2.5-5.7 5.7-5.7h354.8c3.1 0 5.7 2.5 5.7 5.7v30.9c0 3.2-2.6 5.7-5.7 5.7z m0 314.6H518.6c-3.1 0-5.7-2.5-5.7-5.7v-30.9c0-3.1 2.5-5.7 5.7-5.7h169.7c3.1 0 5.7 2.5 5.7 5.7v30.9c0 3.1-2.6 5.7-5.7 5.7z m-224.2 0H336.3c-3.1 0-5.7-2.5-5.7-5.7V467.3c0-3.1 2.5-5.7 5.7-5.7h127.8c3.1 0 5.7 2.5 5.7 5.7v236.4c0 3.1-2.6 5.7-5.7 5.7z m224.2-204.7H518.6c-3.1 0-5.7-2.5-5.7-5.7v-30.9c0-3.1 2.5-5.7 5.7-5.7h169.7c3.1 0 5.7 2.5 5.7 5.7V499c0 3.2-2.6 5.7-5.7 5.7z m0 102.7H518.6c-3.1 0-5.7-2.5-5.7-5.7v-30.9c0-3.1 2.5-5.7 5.7-5.7h169.7c3.1 0 5.7 2.5 5.7 5.7v30.9c0 3.2-2.6 5.7-5.7 5.7z" p-id="15102" fill="#8a8a8a"></path></svg>