<svg xmlns:xlink="http://www.w3.org/1999/xlink" xmlns="http://www.w3.org/2000/svg" version="1.1" viewBox="0 0 1024 1024" height="2048px" width="2048px">
    <title>暂无消息</title>
    <defs>
        <linearGradient id="linearGradient-1" y2="-0.0579832828%" x2="50%" y1="100.122278%" x1="50%">
            <stop offset="0%" stop-opacity="0" stop-color="#FDF5F7"></stop>
            <stop offset="100%" stop-color="#FAD4D2"></stop>
        </linearGradient>
        <linearGradient id="linearGradient-2" y2="0.00649473815%" x2="50.0843871%" y1="100%" x1="50.0843871%">
            <stop offset="0%" stop-opacity="0.1" stop-color="#FFFFFF"></stop>
            <stop offset="100%" stop-color="#FDECEB"></stop>
        </linearGradient>
        <linearGradient id="linearGradient-3" y2="-0.0811277354%" x2="50.0045895%" y1="99.9311993%" x1="50.0045895%">
            <stop offset="0%" stop-opacity="0.1" stop-color="#FFFFFF"></stop>
            <stop offset="100%" stop-color="#FAD6D4"></stop>
        </linearGradient>
        <linearGradient id="linearGradient-4" y2="0%" x2="50%" y1="100%" x1="50%">
            <stop offset="0%" stop-opacity="0.1" stop-color="#FFFFFF"></stop>
            <stop offset="13%" stop-color="#FEFCFB"></stop>
            <stop offset="41%" stop-color="#FEFCFB"></stop>
            <stop offset="81%" stop-color="#F9D8D5"></stop>
            <stop offset="100%" stop-color="#F9D8D5"></stop>
        </linearGradient>
        <linearGradient id="linearGradient-5" y2="43.9816743%" x2="83.1390825%" y1="53.3907727%" x1="35.4400451%">
            <stop offset="0%" stop-opacity="0" stop-color="#FFF3F2"></stop>
            <stop offset="100%" stop-color="#FFE2E0"></stop>
        </linearGradient>
        <linearGradient id="linearGradient-6" y2="38.3472057%" x2="83.1390825%" y1="56.5652773%" x1="35.4400451%">
            <stop offset="0%" stop-opacity="0" stop-color="#FFF3F2"></stop>
            <stop offset="100%" stop-color="#FFE2E0"></stop>
        </linearGradient>
        <linearGradient id="linearGradient-7" y2="53.7478233%" x2="95.0701659%" y1="40.8031859%" x1="0%">
            <stop offset="0%" stop-color="#FBCBCC"></stop>
            <stop offset="100%" stop-color="#F67772"></stop>
        </linearGradient>
        <linearGradient id="linearGradient-8" y2="100%" x2="50%" y1="0%" x1="50%">
            <stop offset="0%" stop-color="#F6342F"></stop>
            <stop offset="100%" stop-color="#FF9998"></stop>
        </linearGradient>
        <linearGradient id="linearGradient-9" y2="53.7605663%" x2="95.0701659%" y1="40.7719155%" x1="0%">
            <stop offset="0%" stop-color="#FBCBCC"></stop>
            <stop offset="100%" stop-color="#F67772"></stop>
        </linearGradient>
    </defs>
    <g fill-rule="evenodd" fill="none" stroke-width="1" stroke="none" id="暂无消息">
        <rect height="1024" width="1024" y="0" x="0" fill="#FFFFFF"></rect>
        <g fill-rule="nonzero" transform="translate(0.000000, 120.000000)" id="底层装饰">
            <polygon points="101.338645 486 107 547 72 542.931464" fill="#FAD4D2" id="路径"></polygon>
            <polygon points="101 486 138 534.205154 106.668679 547" fill="#FDC6C3" id="路径"></polygon>
            <path fill="url(#linearGradient-1)" id="路径" d="M167.226695,222.026586 C163.492711,202.014575 146.009937,187.640823 125.848517,188.006834 C115.061593,187.956383 104.650299,192.004239 96.6816737,199.346752 C92.2164177,197.314169 87.3751145,196.260961 82.4772245,196.256625 C66.9584474,196.009657 53.3722107,206.731143 49.8575212,221.998237 C37.9307461,224.661244 29.3304481,235.181909 29,247.513052 C29.4585952,262.518847 41.8172108,274.341524 56.6790254,273.99176 L160.320975,273.99176 C175.188744,274.357154 187.556538,262.525697 188,247.513052 C187.676143,235.214173 179.115739,224.711538 167.226695,222.026586 L167.226695,222.026586 Z"></path>
            <path fill="url(#linearGradient-2)" id="路径" d="M768.714498,83.0955745 C763.32672,74.6548285 754.21547,69.4118365 744.306491,69.0501903 C738.536478,60.1203494 728.651433,54.817417 718.124893,55.0048061 C709.6853,54.9196281 701.567448,58.2843886 695.603086,64.3398479 C692.872347,63.4561753 690.023822,63.0036407 687.157409,62.9981143 C673.897696,62.9981143 662.946468,72.3046086 661.820379,84.0661904 C651.712515,86.5091866 644.434781,95.4630212 644,105.990693 C644,118.665795 655.457969,129 669.337032,129 L766.659384,129 C780.735511,129 791.996416,118.665795 791.996416,105.990693 C792.221633,93.9436356 781.805297,84.037643 768.714498,83.0955745 Z"></path>
            <path fill="url(#linearGradient-3)" id="路径" d="M949.623905,51.7428517 C940.122562,32.1673233 920.286816,19.7104525 898.509647,19.643039 C886.380486,19.6691136 874.582387,23.5978536 864.863399,30.8471621 C853.298536,8.31301396 828.182324,-3.83299065 803.315887,1.08326516 C778.449449,5.99952119 759.857514,26.7869102 757.756177,52.0229547 C731.006664,60.4551356 714.408255,87.1140641 718.662885,114.81122 C722.917516,142.508377 746.754,162.9685 774.803609,163 L933.053129,163 C961.264971,163.053292 985.245783,142.424685 989.381219,114.545632 C993.516652,86.6665792 976.554782,59.9769683 949.53979,51.8548928 L949.623905,51.7428517 Z"></path>
            <ellipse ry="162" rx="512" cy="622" cx="512" opacity="0.407744635" fill="url(#linearGradient-4)" id="椭圆形"></ellipse>
            <polygon points="906 486 901.126468 550 865 539.522626" fill="#FAD4D2" id="路径"></polygon>
            <polygon points="904.847021 486 935 542.390418 900 550" fill="#FDC6C3" id="路径"></polygon>
            <polygon points="201.370482 474 206 522 177 518.807536" fill="#F7D9D7" id="路径"></polygon>
            <polygon points="200 474 230 511.885817 204.547188 522" fill="#FFCCC8" id="路径"></polygon>
            <polygon points="148.480744 444 158 545 94 538.708564" fill="#FAD4D2" id="路径"></polygon>
            <polygon points="147 444 214 523.373191 156.526873 545" fill="#FDC6C3" id="路径"></polygon>
        </g>
        <polygon points="611.147048 669.001528 575.606612 661.062226 366.147048 714.242552 451.422396 746.062226" fill="url(#linearGradient-5)" id="路径-24"></polygon>
        <polygon points="401.147048 679.974983 376.995826 676.062226 314.147048 697.062226 334.374707 718.062226" fill="url(#linearGradient-6)" id="路径-24备份"></polygon>
        <polygon points="669.147048 654.062226 695.147048 642.761301 677.138269 639.062226" fill="#F6342F" id="路径-40"></polygon>
        <path fill="#F6342F" id="形状结合" d="M473.147271,436.024461 C473.427726,436.024461 473.707987,436.039209 473.986893,436.068644 L701.003147,460.027205 C705.226437,460.472917 708.365506,464.140861 708.153546,468.382312 L699.762959,636.282714 C699.542437,640.695486 695.78641,644.093975 691.373639,643.873453 C690.890806,643.849324 690.411153,643.781479 689.940569,643.67075 L621.201584,627.49644 L611.568048,668.350226 L612,668.763481 L588,679 L592.668048,655.055226 L549.933407,623.736923 L473.147055,623.73692 C468.812141,623.736929 465.282512,620.289091 465.150862,615.986108 L465.147064,615.73692 L465.147048,446.143461 L464.302732,448.062226 L447.147048,446.695639 L469.147048,437.062226 L469.127132,437.106402 C470.308366,436.418496 471.681802,436.024459 473.147271,436.024461 Z"></path>
        <g transform="translate(417.147048, 445.062226)" id="信息">
            <polygon points="247.852952 200.937774 265.852952 193.102869 259.561717 177.937774" fill="#F6342F" id="路径-39"></polygon>
            <path transform="translate(139.509976, 121.744546) rotate(6.000000) translate(-139.509976, -121.744546)" fill="url(#linearGradient-7)" id="矩形" d="M18.2526238,13.4414481 L251.673077,13.3944146 C254.860284,13.3937724 257.491797,15.8851623 257.665381,19.067639 L267.038231,190.90926 C267.218704,194.21805 264.682702,197.046657 261.373911,197.22713 C261.015122,197.2467 260.6553,197.234 260.298784,197.189183 L193.460516,188.787151 C190.179975,188.374764 187.184071,190.694042 186.761394,193.973273 L182.105372,230.095822 L182.105372,230.095822 L117.643804,192.768998 C116.545027,192.132745 115.272735,191.861461 114.009995,191.99418 L37.237949,200.063248 C33.9423933,200.409625 30.9900237,198.018843 30.6436468,194.723287 L12.2867014,20.0686188 C11.9403246,16.7730631 14.3311064,13.8206935 17.626662,13.4743166 C17.8346008,13.4524614 18.0435397,13.4414902 18.2526238,13.4414481 Z"></path>
            <circle r="20.5" cy="109.437774" cx="84.3529524" fill="url(#linearGradient-8)" id="椭圆形"></circle>
            <circle r="20.5" cy="109.437774" cx="141.352952" fill="url(#linearGradient-8)" id="椭圆形"></circle>
            <circle r="20.5" cy="109.437774" cx="200.352952" fill="url(#linearGradient-8)" id="椭圆形"></circle>
        </g>
        <g transform="translate(406.647048, 619.562226) scale(-1, 1) translate(-406.647048, -619.562226) translate(327.147048, 550.062226)" id="信息1">
            <path fill="#F6342F" id="形状结合" d="M29.9810317,0.916668386 C30.1200172,0.916668368 30.2589082,0.923912208 30.3971396,0.938370428 L155.570646,14.0308089 C157.684613,14.2519179 159.256494,16.0877265 159.149464,18.2105294 L154.514365,110.141017 C154.42068,111.999116 153.073392,113.496972 151.332586,113.857066 L138.564778,119.292015 L141.393195,111.917774 L115.302682,105.833731 C113.183522,105.339504 111.05803,106.629977 110.5189,108.738161 L105.580696,128.048473 L93.0772537,132.937774 L95.3191948,120.262774 L73.5106865,103.715982 C72.8151345,103.188245 71.9660145,102.902577 71.092917,102.902577 L29.9810443,102.902572 C27.7719056,102.902571 25.981045,101.11171 25.9810438,98.9025716 L25.9800476,7.43877366 L16.1470476,6.69220173 L27.5909226,1.70897029 C28.2577483,1.21130033 29.0849825,0.916668496 29.9810317,0.916668386 Z"></path>
            <path transform="translate(76.094188, 72.157109) rotate(6.000000) translate(-76.094188, -72.157109)" fill="url(#linearGradient-9)" id="矩形" d="M10.8348919,13.0176411 L136.499801,13.0176411 C138.624143,13.0176411 140.377938,14.6782219 140.493843,16.7993999 L145.534378,109.046474 C145.654909,111.252322 143.964425,113.138225 141.758577,113.258757 C141.518676,113.271865 141.278082,113.263333 141.039712,113.233263 L106.222347,108.841128 C104.034087,108.565083 102.035318,110.112437 101.754319,112.300066 L99.3142336,131.296577 L99.3142336,131.296577 L64.3980937,111.034768 C63.6648705,110.609279 62.8154252,110.427743 61.9723329,110.516356 L21.1133677,114.810806 C18.9163306,115.041724 16.9480842,113.44787 16.7171663,111.250832 L6.8568043,17.4357549 C6.62588639,15.2387178 8.21974092,13.2704714 10.416778,13.0395535 C10.5556712,13.0249552 10.6952336,13.0176411 10.8348919,13.0176411 Z"></path>
            <circle r="11.5" cy="66.4377737" cx="45.6470476" fill="url(#linearGradient-8)" id="椭圆形"></circle>
            <circle r="11.5" cy="66.4377737" cx="78.6470476" fill="url(#linearGradient-8)" id="椭圆形"></circle>
            <circle r="11.5" cy="66.4377737" cx="109.647048" fill="url(#linearGradient-8)" id="椭圆形"></circle>
        </g>
    </g>
</svg>
