<?xml version="1.0" standalone="no"?><!DOCTYPE svg PUBLIC "-//W3C//DTD SVG 1.1//EN" "http://www.w3.org/Graphics/SVG/1.1/DTD/svg11.dtd"><svg t="1666148547516" class="icon" viewBox="0 0 1024 1024" version="1.1" xmlns="http://www.w3.org/2000/svg" p-id="8565" xmlns:xlink="http://www.w3.org/1999/xlink" width="200" height="200"><path d="M93.3 644h-10c-11 0-20-9-20-20V407.8c0-11 9-20 20-20h10c11 0 20 9 20 20V624c0 11-8.9 20-20 20zM658.4 293v491.2l-446.2-174V409.1L658.4 293m15-59.9c-2.5 0-5.1 0.3-7.7 1l-476 123.8c-16.1 4.2-27.5 20.9-27.5 40.2v221.8c0 17.7 9.7 33.5 24 39.1l476 185.7c3.7 1.5 7.5 2.1 11.1 2.1 18.7 0 35-17.7 35-41.2V274.3c0.1-23.2-16.1-41.2-34.9-41.2zM779.2 690.7c-5.9 0-11.9-2.1-16.6-6.3-10.3-9.2-11.2-25-2-35.3 26.1-29.3 40.5-68 40.5-108.8 0-39.9-13.8-77.9-38.9-106.9-9-10.5-7.9-26.2 2.6-35.3 10.5-9 26.2-7.9 35.3 2.6 32.9 38.1 51.1 87.7 51.1 139.6 0 53.1-18.9 103.6-53.2 142.1-5 5.5-11.9 8.3-18.8 8.3z" p-id="8566" fill="#8a8a8a"></path><path d="M864.6 792.8c-5.1 0-10.2-1.5-14.6-4.7-11.2-8.1-13.7-23.7-5.6-34.9 41.6-57.5 64.5-132.7 64.5-211.8 0-76.8-21.7-150.3-61.2-207.1-7.9-11.3-5.1-26.9 6.3-34.8 11.3-7.9 26.9-5.1 34.8 6.3 45.2 65.1 70.1 148.8 70.1 235.6 0 89.6-26.3 175.2-74 241.1-4.9 6.7-12.6 10.3-20.3 10.3z" p-id="8567" fill="#8a8a8a"></path></svg>