<?xml version="1.0" standalone="no"?><!DOCTYPE svg PUBLIC "-//W3C//DTD SVG 1.1//EN" "http://www.w3.org/Graphics/SVG/1.1/DTD/svg11.dtd"><svg t="1680184237445" class="icon" viewBox="0 0 1024 1024" version="1.1" xmlns="http://www.w3.org/2000/svg" p-id="5082" xmlns:xlink="http://www.w3.org/1999/xlink" width="200" height="200"><path d="M907.17169 888.699478c0 3.208065-2.632967 5.875824-5.874801 5.875824H422.29135c-3.241834 0-5.879917-2.666736-5.879917-5.875824V747.754399a5.876847 5.876847 0 0 1 5.879917-5.875825h479.005539a5.872754 5.872754 0 0 1 5.874801 5.875825v140.945079z m6.340405-194.559161H410.080238c-22.684652 0-41.143049 18.526959-41.143049 41.340547V900.973012c0 22.775726 18.458397 41.340547 41.143049 41.340547h503.431857c22.694885 0 41.138956-18.565844 41.138956-41.340547V735.480864c0-22.814612-18.444071-41.340547-41.138956-41.340547z m-6.340405-112.493074c0 3.213181-2.632967 5.875824-5.874801 5.875824H422.29135c-3.241834 0-5.879917-2.661619-5.879917-5.875824v-140.939963a5.873778 5.873778 0 0 1 5.879917-5.875824h479.005539a5.872754 5.872754 0 0 1 5.874801 5.875824v140.939963z m6.340405-194.560184H410.080238c-22.684652 0-41.143049 18.526959-41.143049 41.340547V593.919754c0 22.775726 18.458397 41.340547 41.143049 41.340548h503.431857c22.694885 0 41.138956-18.565844 41.138956-41.340548V428.428629c0-22.814612-18.443048-41.335431-41.138956-41.33543v-0.00614z m-6.340405-112.49205c0 3.213181-2.632967 5.875824-5.874801 5.875824H422.29135c-3.241834 0-5.879917-2.661619-5.879917-5.875824v-140.939963a5.875824 5.875824 0 0 1 5.879917-5.875824h479.005539a5.871731 5.871731 0 0 1 5.874801 5.875824v140.939963z m6.340405-194.555068H410.080238c-22.684652 0-41.143049 18.520819-41.143049 41.339524v165.488055c0 22.780843 18.458397 41.340547 41.143049 41.340547h503.431857c22.694885 0 41.138956-18.560728 41.138956-41.340547V121.379465c0-22.818705-18.444071-41.339524-41.138956-41.339524zM263.021927 888.699478c0 3.208065-2.638083 5.875824-5.874801 5.875824H116.983853c-3.236718 0-5.879917-2.666736-5.879917-5.875824V747.754399a5.879917 5.879917 0 0 1 5.879917-5.875825h140.163273a5.875824 5.875824 0 0 1 5.874801 5.875825v140.945079z m6.336312-194.559161H104.77274c-22.684652 0-41.138956 18.526959-41.138956 41.340547V900.973012c0 22.775726 18.453281 41.340547 41.138956 41.340547H269.358239c22.694885 0 41.138956-18.565844 41.138956-41.340547V735.480864c-0.001023-22.814612-18.444071-41.340547-41.138956-41.340547z m-6.336312-112.493074c0 3.213181-2.638083 5.875824-5.874801 5.875824H116.983853c-3.236718 0-5.879917-2.661619-5.879917-5.875824v-140.939963a5.875824 5.875824 0 0 1 5.879917-5.875824h140.163273a5.875824 5.875824 0 0 1 5.874801 5.875824v140.939963z m6.336312-194.560184H104.77274c-22.684652 0-41.138956 18.526959-41.138956 41.340547V593.919754c0 22.775726 18.453281 41.340547 41.138956 41.340548H269.358239c22.694885 0 41.138956-18.565844 41.138956-41.340548V428.428629c0-22.814612-18.443048-41.335431-41.138956-41.33543v-0.00614z m-6.336312-112.49205c0 3.213181-2.638083 5.875824-5.874801 5.875824H116.983853c-3.236718 0-5.879917-2.661619-5.879917-5.875824v-140.939963a5.879917 5.879917 0 0 1 5.879917-5.875824h140.163273a5.873778 5.873778 0 0 1 5.874801 5.875824v140.939963z m6.336312-194.555068H104.77274c-22.684652 0-41.138956 18.520819-41.138956 41.339524v165.488055c0 22.780843 18.453281 41.340547 41.138956 41.340547H269.358239c22.694885 0 41.138956-18.560728 41.138956-41.340547V121.379465c-0.001023-22.818705-18.444071-41.339524-41.138956-41.339524z" p-id="5083"></path></svg>