<?xml version="1.0" standalone="no"?><!DOCTYPE svg PUBLIC "-//W3C//DTD SVG 1.1//EN" "http://www.w3.org/Graphics/SVG/1.1/DTD/svg11.dtd"><svg t="1680184169411" class="icon" viewBox="0 0 1230 1024" version="1.1" xmlns="http://www.w3.org/2000/svg" p-id="2667" xmlns:xlink="http://www.w3.org/1999/xlink" width="240.234375" height="200"><path d="M622.812639 1023.999509a96.512863 96.512863 0 0 1-68.797356-28.501762L28.501762 470.082508a97.3974 97.3974 0 0 1 0-137.594713L332.487795 28.501762a97.299118 97.299118 0 0 1 137.594713 0l576.914974 576.914974a24.570484 24.570484 0 0 1 0 34.693524l-355.387487 355.387487a96.709427 96.709427 0 0 1-68.797356 28.501762zM401.285152 49.140969a48.452995 48.452995 0 0 0-34.103833 14.054317L63.293568 367.181319a48.059868 48.059868 0 0 0 0 68.109383L588.708807 960.804223a48.256431 48.256431 0 0 0 68.109382 0l338.089866-338.089866L435.388984 63.195286A48.256431 48.256431 0 0 0 401.285152 49.140969z" p-id="2668"></path><path d="M1029.601579 647.383123a24.472202 24.472202 0 0 1-17.395903-7.174581l-255.533038-255.533038-12.481806 12.580088a214.352906 214.352906 0 0 1-302.610086 0 24.767048 24.767048 0 0 1 0-34.791806L759.129687 44.816564a103.392598 103.392598 0 0 1 145.948677 0l295.632069 295.632068a103.196035 103.196035 0 0 1 0 145.948678l-153.712951 153.811232a24.472202 24.472202 0 0 1-17.395903 7.174581zM756.77092 325.313214a24.472202 24.472202 0 0 1 17.395903 7.174581l255.533038 255.533038L1166.016909 452.096913a54.25163 54.25163 0 0 0 0-76.463347L870.38484 79.60837a54.055066 54.055066 0 0 0-76.463347 0L495.04612 378.483742a165.015373 165.015373 0 0 0 214.352906-16.118238l29.484581-29.484581A24.472202 24.472202 0 0 1 756.77092 325.313214zM894.365633 769.154444a24.86533 24.86533 0 0 1-17.395903-7.174581l-150.371365-150.076519a24.570484 24.570484 0 1 1 34.693524-34.693524L911.270126 727.286339A24.570484 24.570484 0 0 1 894.365633 769.154444zM754.903563 908.125104a24.373921 24.373921 0 0 1-17.297621-7.174581L587.627705 750.972286a24.570484 24.570484 0 0 1 34.693524-34.791806l149.978237 149.978237a24.570484 24.570484 0 0 1-17.395903 41.966387z" p-id="2669"></path></svg>