<?xml version="1.0" standalone="no"?><!DOCTYPE svg PUBLIC "-//W3C//DTD SVG 1.1//EN" "http://www.w3.org/Graphics/SVG/1.1/DTD/svg11.dtd"><svg t="1666165647122" class="icon" viewBox="0 0 1086 1024" version="1.1" xmlns="http://www.w3.org/2000/svg" p-id="4353" xmlns:xlink="http://www.w3.org/1999/xlink" width="212.109375" height="200"><path d="M83.356703 82.881939v638.107152c0 12.288 14.460121 33.450667 26.158545 38.912l431.817697 181.527273c-0.682667-0.682667 2.048 0.682667 2.048 0.682666s2.792727-0.682667 2.079031-0.682666l431.786666-181.527273c11.015758-4.096 26.189576-26.624 26.189576-38.912V82.881939L567.491491 212.557576l-23.396849 6.826666-23.427878-6.826666L83.356703 82.881939zM79.912339 3.04097l462.78594 130.327272 462.785939-130.327272C1048.895612-9.24703 1086.069915 16.694303 1086.069915 62.401939v657.221819c0 44.373333-34.443636 96.22497-76.427636 113.974303l-432.500364 182.892606c-12.412121 5.461333-24.110545 7.509333-34.443636 7.509333a95.26303 95.26303 0 0 1-34.443637-7.509333l-431.786666-181.527273C33.770279 817.214061 0.009309 765.362424 0.009309 720.989091V62.401939C-0.673358 17.37697 35.849309-9.24703 79.912339 3.04097z" p-id="4354"></path><path d="M309.3504 569.002667l-95.604364 50.765575 18.835394-107.737212L155.160824 435.2l107.737212-15.794424 47.135031-98.800485 47.786666 98.800485 107.737212 15.794424-78.103272 76.148364 18.835394 107.737212-96.938667-50.082909zM690.433552 443.42303l243.74303-83.00606c20.883394-6.857697 32.985212-30.875152 25.6-52.844606-7.447273-21.255758-30.316606-33.605818-51.851637-26.065455l-243.74303 83.006061c-20.883394 6.857697-32.985212 30.875152-25.6 52.844606 7.447273 21.969455 30.316606 33.605818 51.851637 26.065454z m0 165.391515l243.74303-83.03709c20.883394-6.888727 32.985212-30.875152 25.6-52.844607-7.447273-21.255758-30.316606-33.605818-51.851637-26.065454l-243.74303 83.006061c-20.883394 6.857697-32.985212 30.875152-25.6 52.844606a40.99103 40.99103 0 0 0 51.851637 26.065454z m0 164.646788l243.74303-83.037091c20.883394-6.826667 32.985212-30.875152 25.6-52.813575-7.447273-21.286788-30.316606-33.636848-51.851637-26.065455l-243.74303 83.006061c-20.883394 6.857697-32.985212 30.875152-25.6 52.844606 7.447273 21.938424 30.316606 33.605818 51.851637 26.065454z" p-id="4355"></path></svg>