<?xml version="1.0" standalone="no"?><!DOCTYPE svg PUBLIC "-//W3C//DTD SVG 1.1//EN" "http://www.w3.org/Graphics/SVG/1.1/DTD/svg11.dtd"><svg t="1680184311416" class="icon" viewBox="0 0 1024 1024" version="1.1" xmlns="http://www.w3.org/2000/svg" p-id="7378" xmlns:xlink="http://www.w3.org/1999/xlink" width="200" height="200"><path d="M618.496 704.256c-4.864 0-9.728-1.28-14.336-3.584l-97.024-50.944-97.024 50.944c-10.24 5.376-22.784 4.608-32.256-2.304-9.472-6.912-14.08-18.432-12.288-29.952l18.432-108.032-78.592-76.544c-8.448-8.192-11.264-20.48-7.68-31.488 3.584-11.008 13.312-19.2 24.832-20.992l108.544-15.872 48.64-98.304c5.12-10.496 15.872-17.152 27.648-17.152 11.776 0 22.272 6.656 27.648 17.152l48.64 98.304 108.544 15.872c11.52 1.792 21.248 9.728 24.832 20.992 3.584 11.008 0.512 23.296-7.68 31.488l-78.592 76.544 18.432 108.032c2.048 11.52-2.816 23.296-12.288 29.952-5.888 3.84-12.032 5.888-18.432 5.888z m-225.792-221.184l45.568 44.544c7.168 7.168 10.496 17.152 8.96 27.136l-10.752 62.72 56.32-29.696c8.96-4.608 19.712-4.608 28.672 0l56.32 29.696-10.752-62.72c-1.792-9.984 1.536-20.224 8.96-27.136l45.568-44.544-62.976-9.216c-9.984-1.536-18.688-7.68-23.04-16.896l-28.16-57.088-28.16 57.088c-4.352 8.96-13.056 15.36-23.04 16.896l-63.488 9.216zM922.368 113.664H98.816c-16.896 0-30.72-13.824-30.72-30.72s13.824-30.72 30.72-30.72h823.552c16.896 0 30.72 13.824 30.72 30.72s-13.568 30.72-30.72 30.72z" fill="#040000" p-id="7379"></path><path d="M873.472 988.416c-4.352 0-8.96-1.024-13.056-2.816l-353.024-164.096L159.744 985.6c-4.096 2.048-8.448 2.816-13.056 2.816-39.68 0-72.192-32.256-72.192-72.192V279.552c0-58.624 47.616-106.496 106.496-106.496h658.432c58.624 0 106.496 47.616 106.496 106.496V916.48c-0.256 39.68-32.512 71.936-72.448 71.936z m-366.08-231.68c4.352 0 8.96 1.024 13.056 2.816l357.632 166.4c3.584-1.792 6.144-5.376 6.144-9.728V279.552c0-24.832-20.224-45.056-45.056-45.056H180.992c-24.832 0-45.056 20.224-45.056 45.056V916.48c0 4.096 2.56 7.936 6.144 9.472l352.256-166.144c4.096-2.048 8.704-3.072 13.056-3.072z" fill="#040000" p-id="7380"></path></svg>